<svg width="33" height="19" viewBox="0 0 33 19" fill="none" xmlns="http://www.w3.org/2000/svg">
<path d="M0.744 9.36C0.744 8.32 0.928 7.296 1.296 6.288C1.68 5.28 2.232 4.368 2.952 3.552C3.672 2.736 4.552 2.088 5.592 1.608C6.632 1.112 7.816 0.863999 9.144 0.863999C10.696 0.863999 12.048 1.208 13.2 1.896C14.352 2.584 15.208 3.48 15.768 4.584L13.224 6.336C12.936 5.696 12.56 5.192 12.096 4.824C11.632 4.456 11.128 4.192 10.584 4.032C10.056 3.872 9.544 3.792 9.048 3.792C8.216 3.792 7.488 3.96 6.864 4.296C6.256 4.632 5.744 5.072 5.328 5.616C4.912 6.16 4.6 6.768 4.392 7.44C4.2 8.112 4.104 8.784 4.104 9.456C4.104 10.464 4.312 11.408 4.728 12.288C5.144 13.152 5.728 13.856 6.48 14.4C7.232 14.944 8.104 15.216 9.096 15.216C9.608 15.216 10.136 15.128 10.68 14.952C11.24 14.776 11.752 14.496 12.216 14.112C12.68 13.728 13.04 13.232 13.296 12.624L16.008 14.184C15.656 15.032 15.104 15.752 14.352 16.344C13.6 16.92 12.752 17.368 11.808 17.688C10.864 17.992 9.928 18.144 9 18.144C7.784 18.144 6.672 17.896 5.664 17.4C4.672 16.888 3.808 16.216 3.072 15.384C2.336 14.536 1.76 13.592 1.344 12.552C0.944 11.496 0.744 10.432 0.744 9.36Z" fill="white"/>
<path d="M17.1971 9.36C17.1971 8.32 17.3811 7.296 17.7491 6.288C18.1331 5.28 18.6851 4.368 19.4051 3.552C20.1251 2.736 21.0051 2.088 22.0451 1.608C23.0851 1.112 24.2691 0.863999 25.5971 0.863999C27.1491 0.863999 28.5011 1.208 29.6531 1.896C30.8051 2.584 31.6611 3.48 32.2211 4.584L29.6771 6.336C29.3891 5.696 29.0131 5.192 28.5491 4.824C28.0851 4.456 27.5811 4.192 27.0371 4.032C26.5091 3.872 25.9971 3.792 25.5011 3.792C24.6691 3.792 23.9411 3.96 23.3171 4.296C22.7091 4.632 22.1971 5.072 21.7811 5.616C21.3651 6.16 21.0531 6.768 20.8451 7.44C20.6531 8.112 20.5571 8.784 20.5571 9.456C20.5571 10.464 20.7651 11.408 21.1811 12.288C21.5971 13.152 22.1811 13.856 22.9331 14.4C23.6851 14.944 24.5571 15.216 25.5491 15.216C26.0611 15.216 26.5891 15.128 27.1331 14.952C27.6931 14.776 28.2051 14.496 28.6691 14.112C29.1331 13.728 29.4931 13.232 29.7491 12.624L32.4611 14.184C32.1091 15.032 31.5571 15.752 30.8051 16.344C30.0531 16.92 29.2051 17.368 28.2611 17.688C27.3171 17.992 26.3811 18.144 25.4531 18.144C24.2371 18.144 23.1251 17.896 22.1171 17.4C21.1251 16.888 20.2611 16.216 19.5251 15.384C18.7891 14.536 18.2131 13.592 17.7971 12.552C17.3971 11.496 17.1971 10.432 17.1971 9.36Z" fill="#0FAE96"/>
</svg>
